<mxfile host="Electron" agent="Mozilla/5.0 (X11; Linux x86_64) AppleWebKit/537.36 (KHTML, like Gecko) draw.io/24.7.17 Chrome/128.0.6613.186 Electron/32.2.5 Safari/537.36" version="24.7.17">
  <diagram name="Page-1" id="DcIHBttGWHmw7z2Tlncc">
    <mxGraphModel dx="482" dy="811" grid="1" gridSize="10" guides="1" tooltips="1" connect="1" arrows="1" fold="1" page="1" pageScale="1" pageWidth="850" pageHeight="1100" math="0" shadow="0">
      <root>
        <mxCell id="0" />
        <mxCell id="1" parent="0" />
        <mxCell id="dQZUUxVObfSzPTWqJCYE-3" style="edgeStyle=orthogonalEdgeStyle;rounded=0;orthogonalLoop=1;jettySize=auto;html=1;entryX=0.5;entryY=0;entryDx=0;entryDy=0;" edge="1" parent="1" source="dQZUUxVObfSzPTWqJCYE-1" target="dQZUUxVObfSzPTWqJCYE-2">
          <mxGeometry relative="1" as="geometry" />
        </mxCell>
        <mxCell id="dQZUUxVObfSzPTWqJCYE-1" value="start" style="ellipse;whiteSpace=wrap;html=1;" vertex="1" parent="1">
          <mxGeometry x="365" y="40" width="120" height="80" as="geometry" />
        </mxCell>
        <mxCell id="dQZUUxVObfSzPTWqJCYE-5" style="edgeStyle=orthogonalEdgeStyle;rounded=0;orthogonalLoop=1;jettySize=auto;html=1;entryX=0.5;entryY=0;entryDx=0;entryDy=0;" edge="1" parent="1" source="dQZUUxVObfSzPTWqJCYE-2" target="dQZUUxVObfSzPTWqJCYE-4">
          <mxGeometry relative="1" as="geometry" />
        </mxCell>
        <mxCell id="dQZUUxVObfSzPTWqJCYE-2" value="x_coords = {...}" style="rounded=1;whiteSpace=wrap;html=1;" vertex="1" parent="1">
          <mxGeometry x="365" y="160" width="120" height="60" as="geometry" />
        </mxCell>
        <mxCell id="dQZUUxVObfSzPTWqJCYE-7" style="edgeStyle=orthogonalEdgeStyle;rounded=0;orthogonalLoop=1;jettySize=auto;html=1;entryX=0.5;entryY=0;entryDx=0;entryDy=0;" edge="1" parent="1" source="dQZUUxVObfSzPTWqJCYE-4" target="dQZUUxVObfSzPTWqJCYE-6">
          <mxGeometry relative="1" as="geometry" />
        </mxCell>
        <mxCell id="dQZUUxVObfSzPTWqJCYE-4" value="y_coords = {...}" style="rounded=1;whiteSpace=wrap;html=1;" vertex="1" parent="1">
          <mxGeometry x="365" y="260" width="120" height="60" as="geometry" />
        </mxCell>
        <mxCell id="dQZUUxVObfSzPTWqJCYE-9" style="edgeStyle=orthogonalEdgeStyle;rounded=0;orthogonalLoop=1;jettySize=auto;html=1;entryX=0.5;entryY=0;entryDx=0;entryDy=0;" edge="1" parent="1" source="dQZUUxVObfSzPTWqJCYE-6" target="dQZUUxVObfSzPTWqJCYE-8">
          <mxGeometry relative="1" as="geometry" />
        </mxCell>
        <mxCell id="dQZUUxVObfSzPTWqJCYE-6" value="quads = {0, 0, 0, 0}" style="rounded=1;whiteSpace=wrap;html=1;" vertex="1" parent="1">
          <mxGeometry x="365" y="360" width="120" height="60" as="geometry" />
        </mxCell>
        <mxCell id="dQZUUxVObfSzPTWqJCYE-44" style="edgeStyle=orthogonalEdgeStyle;rounded=0;orthogonalLoop=1;jettySize=auto;html=1;entryX=0.5;entryY=0;entryDx=0;entryDy=0;" edge="1" parent="1" source="dQZUUxVObfSzPTWqJCYE-8" target="dQZUUxVObfSzPTWqJCYE-43">
          <mxGeometry relative="1" as="geometry" />
        </mxCell>
        <mxCell id="dQZUUxVObfSzPTWqJCYE-8" value="mostPoints(quads, x_coords, y_coords)" style="shape=process;whiteSpace=wrap;html=1;backgroundOutline=1;" vertex="1" parent="1">
          <mxGeometry x="280" y="460" width="290" height="60" as="geometry" />
        </mxCell>
        <mxCell id="dQZUUxVObfSzPTWqJCYE-13" style="edgeStyle=orthogonalEdgeStyle;rounded=0;orthogonalLoop=1;jettySize=auto;html=1;entryX=0.5;entryY=0;entryDx=0;entryDy=0;" edge="1" parent="1" source="dQZUUxVObfSzPTWqJCYE-10" target="dQZUUxVObfSzPTWqJCYE-12">
          <mxGeometry relative="1" as="geometry" />
        </mxCell>
        <mxCell id="dQZUUxVObfSzPTWqJCYE-10" value="mostPoints(quads, x_coords, y_coords)" style="ellipse;whiteSpace=wrap;html=1;" vertex="1" parent="1">
          <mxGeometry x="730" y="40" width="240" height="80" as="geometry" />
        </mxCell>
        <mxCell id="dQZUUxVObfSzPTWqJCYE-16" style="edgeStyle=orthogonalEdgeStyle;rounded=0;orthogonalLoop=1;jettySize=auto;html=1;entryX=0.5;entryY=0;entryDx=0;entryDy=0;" edge="1" parent="1" source="dQZUUxVObfSzPTWqJCYE-12" target="dQZUUxVObfSzPTWqJCYE-14">
          <mxGeometry relative="1" as="geometry" />
        </mxCell>
        <mxCell id="dQZUUxVObfSzPTWqJCYE-12" value="i = 0; i &amp;lt; 10; i++" style="shape=hexagon;perimeter=hexagonPerimeter2;whiteSpace=wrap;html=1;fixedSize=1;" vertex="1" parent="1">
          <mxGeometry x="790" y="160" width="120" height="80" as="geometry" />
        </mxCell>
        <mxCell id="dQZUUxVObfSzPTWqJCYE-17" style="edgeStyle=orthogonalEdgeStyle;rounded=0;orthogonalLoop=1;jettySize=auto;html=1;entryX=0.5;entryY=0;entryDx=0;entryDy=0;" edge="1" parent="1" source="dQZUUxVObfSzPTWqJCYE-14" target="dQZUUxVObfSzPTWqJCYE-15">
          <mxGeometry relative="1" as="geometry" />
        </mxCell>
        <mxCell id="dQZUUxVObfSzPTWqJCYE-24" value="true" style="edgeLabel;html=1;align=center;verticalAlign=middle;resizable=0;points=[];" vertex="1" connectable="0" parent="dQZUUxVObfSzPTWqJCYE-17">
          <mxGeometry x="-0.2" y="-1" relative="1" as="geometry">
            <mxPoint as="offset" />
          </mxGeometry>
        </mxCell>
        <mxCell id="dQZUUxVObfSzPTWqJCYE-27" style="edgeStyle=orthogonalEdgeStyle;rounded=0;orthogonalLoop=1;jettySize=auto;html=1;exitX=0;exitY=0.5;exitDx=0;exitDy=0;entryX=0;entryY=0.5;entryDx=0;entryDy=0;" edge="1" parent="1" source="dQZUUxVObfSzPTWqJCYE-14" target="dQZUUxVObfSzPTWqJCYE-26">
          <mxGeometry relative="1" as="geometry">
            <Array as="points">
              <mxPoint x="730" y="320" />
              <mxPoint x="730" y="660" />
            </Array>
          </mxGeometry>
        </mxCell>
        <mxCell id="dQZUUxVObfSzPTWqJCYE-28" value="false" style="edgeLabel;html=1;align=center;verticalAlign=middle;resizable=0;points=[];" vertex="1" connectable="0" parent="dQZUUxVObfSzPTWqJCYE-27">
          <mxGeometry x="-0.6476" y="-3" relative="1" as="geometry">
            <mxPoint as="offset" />
          </mxGeometry>
        </mxCell>
        <mxCell id="dQZUUxVObfSzPTWqJCYE-14" value="x_coords[i] &amp;gt; 0" style="rhombus;whiteSpace=wrap;html=1;" vertex="1" parent="1">
          <mxGeometry x="770" y="280" width="160" height="80" as="geometry" />
        </mxCell>
        <mxCell id="dQZUUxVObfSzPTWqJCYE-19" style="edgeStyle=orthogonalEdgeStyle;rounded=0;orthogonalLoop=1;jettySize=auto;html=1;entryX=0;entryY=0.5;entryDx=0;entryDy=0;" edge="1" parent="1" source="dQZUUxVObfSzPTWqJCYE-15" target="dQZUUxVObfSzPTWqJCYE-18">
          <mxGeometry relative="1" as="geometry" />
        </mxCell>
        <mxCell id="dQZUUxVObfSzPTWqJCYE-20" value="true" style="edgeLabel;html=1;align=center;verticalAlign=middle;resizable=0;points=[];" vertex="1" connectable="0" parent="dQZUUxVObfSzPTWqJCYE-19">
          <mxGeometry x="-0.3" y="-2" relative="1" as="geometry">
            <mxPoint as="offset" />
          </mxGeometry>
        </mxCell>
        <mxCell id="dQZUUxVObfSzPTWqJCYE-22" style="edgeStyle=orthogonalEdgeStyle;rounded=0;orthogonalLoop=1;jettySize=auto;html=1;entryX=0;entryY=0.5;entryDx=0;entryDy=0;" edge="1" parent="1" source="dQZUUxVObfSzPTWqJCYE-15" target="dQZUUxVObfSzPTWqJCYE-21">
          <mxGeometry relative="1" as="geometry">
            <Array as="points">
              <mxPoint x="850" y="550" />
            </Array>
          </mxGeometry>
        </mxCell>
        <mxCell id="dQZUUxVObfSzPTWqJCYE-23" value="false" style="edgeLabel;html=1;align=center;verticalAlign=middle;resizable=0;points=[];" vertex="1" connectable="0" parent="dQZUUxVObfSzPTWqJCYE-22">
          <mxGeometry x="-0.7368" y="3" relative="1" as="geometry">
            <mxPoint as="offset" />
          </mxGeometry>
        </mxCell>
        <mxCell id="dQZUUxVObfSzPTWqJCYE-15" value="y_coords[i] &amp;gt; 0" style="rhombus;whiteSpace=wrap;html=1;" vertex="1" parent="1">
          <mxGeometry x="770" y="400" width="160" height="80" as="geometry" />
        </mxCell>
        <mxCell id="dQZUUxVObfSzPTWqJCYE-42" style="edgeStyle=orthogonalEdgeStyle;rounded=0;orthogonalLoop=1;jettySize=auto;html=1;entryX=1;entryY=0.5;entryDx=0;entryDy=0;" edge="1" parent="1" source="dQZUUxVObfSzPTWqJCYE-18" target="dQZUUxVObfSzPTWqJCYE-35">
          <mxGeometry relative="1" as="geometry">
            <Array as="points">
              <mxPoint x="1150" y="440" />
              <mxPoint x="1150" y="880" />
            </Array>
          </mxGeometry>
        </mxCell>
        <mxCell id="dQZUUxVObfSzPTWqJCYE-18" value="quads[0]++" style="rounded=1;whiteSpace=wrap;html=1;" vertex="1" parent="1">
          <mxGeometry x="970" y="410" width="120" height="60" as="geometry" />
        </mxCell>
        <mxCell id="dQZUUxVObfSzPTWqJCYE-40" style="edgeStyle=orthogonalEdgeStyle;rounded=0;orthogonalLoop=1;jettySize=auto;html=1;entryX=1;entryY=0.5;entryDx=0;entryDy=0;" edge="1" parent="1" source="dQZUUxVObfSzPTWqJCYE-21" target="dQZUUxVObfSzPTWqJCYE-35">
          <mxGeometry relative="1" as="geometry">
            <Array as="points">
              <mxPoint x="1150" y="550" />
              <mxPoint x="1150" y="880" />
            </Array>
          </mxGeometry>
        </mxCell>
        <mxCell id="dQZUUxVObfSzPTWqJCYE-21" value="quads[3]++" style="rounded=1;whiteSpace=wrap;html=1;" vertex="1" parent="1">
          <mxGeometry x="970" y="520" width="120" height="60" as="geometry" />
        </mxCell>
        <mxCell id="dQZUUxVObfSzPTWqJCYE-30" style="edgeStyle=orthogonalEdgeStyle;rounded=0;orthogonalLoop=1;jettySize=auto;html=1;entryX=0;entryY=0.5;entryDx=0;entryDy=0;" edge="1" parent="1" source="dQZUUxVObfSzPTWqJCYE-26" target="dQZUUxVObfSzPTWqJCYE-29">
          <mxGeometry relative="1" as="geometry" />
        </mxCell>
        <mxCell id="dQZUUxVObfSzPTWqJCYE-33" value="true" style="edgeLabel;html=1;align=center;verticalAlign=middle;resizable=0;points=[];" vertex="1" connectable="0" parent="dQZUUxVObfSzPTWqJCYE-30">
          <mxGeometry x="-0.3" y="-4" relative="1" as="geometry">
            <mxPoint as="offset" />
          </mxGeometry>
        </mxCell>
        <mxCell id="dQZUUxVObfSzPTWqJCYE-32" style="edgeStyle=orthogonalEdgeStyle;rounded=0;orthogonalLoop=1;jettySize=auto;html=1;entryX=0;entryY=0.5;entryDx=0;entryDy=0;" edge="1" parent="1" source="dQZUUxVObfSzPTWqJCYE-26" target="dQZUUxVObfSzPTWqJCYE-31">
          <mxGeometry relative="1" as="geometry">
            <Array as="points">
              <mxPoint x="850" y="770" />
            </Array>
          </mxGeometry>
        </mxCell>
        <mxCell id="dQZUUxVObfSzPTWqJCYE-34" value="false" style="edgeLabel;html=1;align=center;verticalAlign=middle;resizable=0;points=[];" vertex="1" connectable="0" parent="dQZUUxVObfSzPTWqJCYE-32">
          <mxGeometry x="-0.6632" y="1" relative="1" as="geometry">
            <mxPoint as="offset" />
          </mxGeometry>
        </mxCell>
        <mxCell id="dQZUUxVObfSzPTWqJCYE-26" value="y_coords[i] &amp;gt; 0" style="rhombus;whiteSpace=wrap;html=1;" vertex="1" parent="1">
          <mxGeometry x="770" y="620" width="160" height="80" as="geometry" />
        </mxCell>
        <mxCell id="dQZUUxVObfSzPTWqJCYE-38" style="edgeStyle=orthogonalEdgeStyle;rounded=0;orthogonalLoop=1;jettySize=auto;html=1;entryX=1;entryY=0.5;entryDx=0;entryDy=0;" edge="1" parent="1" source="dQZUUxVObfSzPTWqJCYE-29" target="dQZUUxVObfSzPTWqJCYE-35">
          <mxGeometry relative="1" as="geometry">
            <Array as="points">
              <mxPoint x="1150" y="660" />
              <mxPoint x="1150" y="880" />
            </Array>
          </mxGeometry>
        </mxCell>
        <mxCell id="dQZUUxVObfSzPTWqJCYE-29" value="quads[1]++" style="rounded=1;whiteSpace=wrap;html=1;" vertex="1" parent="1">
          <mxGeometry x="970" y="630" width="120" height="60" as="geometry" />
        </mxCell>
        <mxCell id="dQZUUxVObfSzPTWqJCYE-36" style="edgeStyle=orthogonalEdgeStyle;rounded=0;orthogonalLoop=1;jettySize=auto;html=1;entryX=1;entryY=0.5;entryDx=0;entryDy=0;" edge="1" parent="1" source="dQZUUxVObfSzPTWqJCYE-31" target="dQZUUxVObfSzPTWqJCYE-35">
          <mxGeometry relative="1" as="geometry">
            <Array as="points">
              <mxPoint x="1150" y="770" />
              <mxPoint x="1150" y="880" />
            </Array>
          </mxGeometry>
        </mxCell>
        <mxCell id="dQZUUxVObfSzPTWqJCYE-31" value="quads[2]++" style="rounded=1;whiteSpace=wrap;html=1;" vertex="1" parent="1">
          <mxGeometry x="970" y="740" width="120" height="60" as="geometry" />
        </mxCell>
        <mxCell id="dQZUUxVObfSzPTWqJCYE-35" value="end" style="ellipse;whiteSpace=wrap;html=1;" vertex="1" parent="1">
          <mxGeometry x="790" y="840" width="120" height="80" as="geometry" />
        </mxCell>
        <mxCell id="dQZUUxVObfSzPTWqJCYE-43" value="print in what quad are the most points" style="shape=parallelogram;perimeter=parallelogramPerimeter;whiteSpace=wrap;html=1;fixedSize=1;" vertex="1" parent="1">
          <mxGeometry x="290" y="560" width="270" height="60" as="geometry" />
        </mxCell>
      </root>
    </mxGraphModel>
  </diagram>
</mxfile>
